<?xml version="1.0" encoding="UTF-8" standalone="no"?>
<svg
   xmlns="http://www.w3.org/2000/svg"
   width="87.790665mm"
   height="170.09062mm"
   viewBox="0 0 87.790667 170.09062"
   version="1.1"
   id="svg8"
>
  <defs
     id="defs2" />
  <g
     id="layer1"
     transform="translate(-44.186835,-68.010601)">
    <path
       style="fill:#e6e6e6;"
       d="m 57.452381,106.58928 -9.827382,-23.056542 8.315476,-3.401787 9.827382,28.726189"
       id="path835" />
    <path
       style="fill:#e6e6e6;"
       d="M 63.122023,110.74702 V 84.666666 l 7.559524,-0.755952 0.377976,26.836306"
       id="path837" />
    <path
       style="fill:#e6e6e6;"
       d="m 68.41369,106.96726 6.425594,-35.529761 8.693454,2.645833 -7.559524,35.151788"
       id="path839" />
    <path
       style="fill:#e6e6e6;"
       d="M 76.973622,107.44235 77.240894,88.065307 84.1899,88.198943 83.922631,107.57598"
       id="path841" />
    <path
       style="fill:#e6e6e6;"
       d="m 85.927151,105.83873 -3.875407,-20.579752 6.949008,-1.469983 3.608139,23.118815"
       id="path843" />
    <path
       style="fill:#e6e6e6;"
       d="m 90.871639,105.43783 0.668174,-28.063303 5.612659,0.400904 -1.069078,28.998739"
       id="path845" />
    <path
       style="fill:#e6e6e6;"
       d="m 94.872023,106.96726 4.157737,-21.166667 6.04762,0.944941 -3.96875,22.867556"
       id="path847" />
    <path
       style="fill:#e6e6e6;"
       d="m 104.51042,106.21131 -2.45685,-22.111609 6.4256,-1.511904 1.32291,23.812503"
       id="path849" />
    <path
       style="fill:#e6e6e6;"
       d="m 107.34524,108.10119 3.77976,-34.206847 4.7247,0.755954 -3.02381,32.127973"
       id="path851" />
    <path
       style="fill:#e6e6e6;"
       d="m 114.90476,107.15625 7.55952,-20.221727 6.04762,1.511903 -8.88244,19.843754"
       id="path853" />
    <path
       style="fill:#e6e6e6;"
       d="m 111.48675,106.60128 2.23773,-17.412134 6.14571,0.79567 -2.35879,17.752044"
       id="path855"
    />
    <path
       style="fill:#e6e6e6;"
       d="m 52.160714,107.34524 c -0.690014,1.34433 40.588936,127.64468 42.333333,127.75595 1.075444,0.0686 30.083493,-127.07723 28.726193,-128.51191 -2.65765,-2.80915 -70.318334,-0.68807 -71.059526,0.75596 z"
       id="path833"
    />
  </g>
</svg>
